<svg width="14" height="18" viewBox="0 0 14 18" fill="none" xmlns="http://www.w3.org/2000/svg">
<path fill-rule="evenodd" clip-rule="evenodd" d="M11.6875 5.875C11.3631 5.87454 11.0427 5.94689 10.75 6.08672V3.6875C10.7498 2.91631 10.3435 2.2022 9.68073 1.80797C9.01792 1.41375 8.19649 1.39766 7.51875 1.76562C7.18742 0.741683 6.16051 0.11086 5.09739 0.27819C4.03426 0.445519 3.25078 1.36129 3.25 2.4375V2.96172C2.95728 2.82189 2.6369 2.74954 2.3125 2.75C1.10438 2.75 0.125 3.72938 0.125 4.9375V10.875C0.125 14.672 3.20304 17.75 7 17.75C10.797 17.75 13.875 14.672 13.875 10.875V8.0625C13.875 6.85438 12.8956 5.875 11.6875 5.875ZM12.625 10.875C12.625 13.9816 10.1066 16.5 7 16.5C3.8934 16.5 1.375 13.9816 1.375 10.875V4.9375C1.375 4.41973 1.79473 4 2.3125 4C2.83027 4 3.25 4.41973 3.25 4.9375V8.375C3.25 8.72018 3.52982 9 3.875 9C4.22018 9 4.5 8.72018 4.5 8.375V2.4375C4.5 1.91973 4.91973 1.5 5.4375 1.5C5.95527 1.5 6.375 1.91973 6.375 2.4375V7.75C6.375 8.09518 6.65482 8.375 7 8.375C7.34518 8.375 7.625 8.09518 7.625 7.75V3.6875C7.625 3.16973 8.04473 2.75 8.5625 2.75C9.08027 2.75 9.5 3.16973 9.5 3.6875V9.05234C7.69702 9.35971 6.37752 10.921 6.375 12.75C6.375 13.0952 6.65482 13.375 7 13.375C7.34518 13.375 7.625 13.0952 7.625 12.75C7.625 11.3693 8.74429 10.25 10.125 10.25C10.4702 10.25 10.75 9.97018 10.75 9.625V8.0625C10.75 7.54473 11.1697 7.125 11.6875 7.125C12.2053 7.125 12.625 7.54473 12.625 8.0625V10.875Z" fill="#120F1A"/>
</svg>
