<svg width="14" height="12" viewBox="0 0 14 12" fill="none" xmlns="http://www.w3.org/2000/svg">
<path fill-rule="evenodd" clip-rule="evenodd" d="M13.5855 6.39797L8.52297 11.4605C8.30318 11.6803 7.94682 11.6803 7.72703 11.4605C7.50724 11.2407 7.50724 10.8843 7.72703 10.6645L11.8298 6.5625H0.8125C0.50184 6.5625 0.25 6.31066 0.25 6C0.25 5.68934 0.50184 5.4375 0.8125 5.4375H11.8298L7.72703 1.33547C7.50724 1.11568 7.50724 0.759323 7.72703 0.539531C7.94682 0.319739 8.30318 0.319739 8.52297 0.539531L13.5855 5.60203C13.6911 5.70754 13.7504 5.85071 13.7504 6C13.7504 6.14929 13.6911 6.29246 13.5855 6.39797Z" fill="#FAFAFA"/>
</svg>
