<svg width="14" height="19" viewBox="0 0 14 19" fill="none" xmlns="http://www.w3.org/2000/svg">
<path fill-rule="evenodd" clip-rule="evenodd" d="M10.125 3.17031V2.5C10.125 1.46447 9.28553 0.625 8.25 0.625H5.75C4.71447 0.625 3.875 1.46447 3.875 2.5V3.17031C1.72421 3.4838 0.128237 5.32648 0.125 7.5V16.875C0.125 17.5654 0.684644 18.125 1.375 18.125H12.625C13.3154 18.125 13.875 17.5654 13.875 16.875V7.5C13.8718 5.32648 12.2758 3.4838 10.125 3.17031ZM5.75 1.875H8.25C8.59518 1.875 8.875 2.15482 8.875 2.5V3.125H5.125V2.5C5.125 2.15482 5.40482 1.875 5.75 1.875ZM10.125 12.5H3.875V11.875C3.875 11.5298 4.15482 11.25 4.5 11.25H9.5C9.84518 11.25 10.125 11.5298 10.125 11.875V12.5ZM3.875 13.75H7.625V14.375C7.625 14.7202 7.90482 15 8.25 15C8.59518 15 8.875 14.7202 8.875 14.375V13.75H10.125V16.875H3.875V13.75ZM12.625 16.875H11.375V11.875C11.375 10.8395 10.5355 10 9.5 10H4.5C3.46447 10 2.625 10.8395 2.625 11.875V16.875H1.375V7.5C1.375 5.77411 2.77411 4.375 4.5 4.375H9.5C11.2259 4.375 12.625 5.77411 12.625 7.5V16.875ZM8.875 6.875C8.875 7.22018 8.59518 7.5 8.25 7.5H5.75C5.40482 7.5 5.125 7.22018 5.125 6.875C5.125 6.52982 5.40482 6.25 5.75 6.25H8.25C8.59518 6.25 8.875 6.52982 8.875 6.875Z" fill="#120F1A"/>
</svg>
