<svg width="24" height="12" viewBox="0 0 24 12" fill="none" xmlns="http://www.w3.org/2000/svg">
<path fill-rule="evenodd" clip-rule="evenodd" d="M24 6.75C23.9959 3.02379 20.9762 0.00413322 17.25 0H6.75C3.02379 0.00413322 0.00413335 3.02379 0 6.75C3.58074e-05 7.74077 0.646595 8.61553 1.59375 8.90625C2.16188 10.8159 5.12156 12 6.75 12C8.53135 11.9978 10.0662 10.7449 10.425 9H13.575C13.9338 10.7449 15.4686 11.9978 17.25 12C18.8747 12 21.8344 10.8131 22.4062 8.90625C23.3534 8.61553 24 7.74077 24 6.75ZM4.26094 9.72563C3.46875 9.25875 3 8.7075 3 8.25C3 7.7925 3.46031 7.25531 4.23094 6.79219L7.71938 10.2797C7.41699 10.4253 7.0856 10.5006 6.75 10.5C6.04406 10.5 5.04375 10.1887 4.26094 9.72563ZM8.77969 9.21937L5.71875 6.15938C6.05406 6.06144 6.40076 6.00786 6.75 6C7.99264 6 9 7.00736 9 8.25C9.00059 8.5856 8.92527 8.91699 8.77969 9.21937ZM15 8.25C14.9995 7.72932 15.1805 7.22475 15.5119 6.82312L18.8438 10.155C18.2812 10.3706 17.7047 10.5 17.25 10.5C16.0074 10.5 15 9.49264 15 8.25ZM20.2153 9.40406L16.8478 6.03656C16.9805 6.01244 17.1151 6.0002 17.25 6C17.9559 6 18.9563 6.31125 19.7391 6.77437C20.5219 7.2375 21 7.7925 21 8.25C21 8.60531 20.7188 9.01875 20.2153 9.40406ZM22.2825 7.27687C21.5006 5.55469 18.7819 4.5 17.25 4.5C15.4686 4.50218 13.9338 5.75515 13.575 7.5H10.425C10.0662 5.75515 8.53135 4.50218 6.75 4.5C5.21812 4.5 2.49937 5.55469 1.7175 7.27687C1.57849 7.13672 1.50034 6.9474 1.5 6.75C1.5031 3.85179 3.85179 1.5031 6.75 1.5H17.25C20.1482 1.5031 22.4969 3.85179 22.5 6.75C22.4997 6.9474 22.4215 7.13672 22.2825 7.27687Z" fill="#121217"/>
</svg>
