<svg width="19" height="20" viewBox="0 0 19 20" fill="none" xmlns="http://www.w3.org/2000/svg">
<path fill-rule="evenodd" clip-rule="evenodd" d="M17.3 2H15.05V1.25C15.05 0.835786 14.7142 0.5 14.3 0.5C13.8858 0.5 13.55 0.835786 13.55 1.25V2H6.04999V1.25C6.04999 0.835786 5.7142 0.5 5.29999 0.5C4.88577 0.5 4.54999 0.835786 4.54999 1.25V2H2.29999C1.47156 2 0.799988 2.67157 0.799988 3.5V18.5C0.799988 19.3284 1.47156 20 2.29999 20H17.3C18.1284 20 18.8 19.3284 18.8 18.5V3.5C18.8 2.67157 18.1284 2 17.3 2ZM8.29999 16.25C8.29999 16.6642 7.9642 17 7.54999 17C7.13577 17 6.79999 16.6642 6.79999 16.25V11.4631L6.38561 11.6713C6.01489 11.8566 5.5641 11.7063 5.37874 11.3356C5.19338 10.9649 5.34364 10.5141 5.71436 10.3287L7.21436 9.57875C7.44694 9.46237 7.72321 9.47478 7.94441 9.61155C8.16562 9.74832 8.30017 9.98993 8.29999 10.25V16.25ZM13.55 15.5C13.9642 15.5 14.3 15.8358 14.3 16.25C14.3 16.6642 13.9642 17 13.55 17H10.55C10.2659 17 10.0062 16.8395 9.87917 16.5854C9.75212 16.3313 9.77954 16.0273 9.94999 15.8L12.6481 12.2028C12.8153 11.9802 12.8455 11.6833 12.7264 11.4316C12.6073 11.1799 12.3586 11.0149 12.0804 11.003C11.8022 10.9912 11.5404 11.1344 11.4003 11.375C11.2702 11.6146 11.0203 11.7647 10.7476 11.7671C10.475 11.7694 10.2225 11.6236 10.0883 11.3863C9.95414 11.1489 9.95932 10.8574 10.1019 10.625C10.6112 9.74353 11.649 9.31391 12.6324 9.57743C13.6158 9.84095 14.2997 10.7319 14.3 11.75C14.3016 12.2391 14.1421 12.7152 13.8462 13.1047L12.05 15.5H13.55ZM2.29999 6.5V3.5H4.54999V4.25C4.54999 4.66421 4.88577 5 5.29999 5C5.7142 5 6.04999 4.66421 6.04999 4.25V3.5H13.55V4.25C13.55 4.66421 13.8858 5 14.3 5C14.7142 5 15.05 4.66421 15.05 4.25V3.5H17.3V6.5H2.29999Z" fill="#121217"/>
</svg>
