<svg width="19" height="20" viewBox="0 0 19 20" fill="none" xmlns="http://www.w3.org/2000/svg">
<path fill-rule="evenodd" clip-rule="evenodd" d="M17.3 2H15.05V1.25C15.05 0.835786 14.7142 0.5 14.3 0.5C13.8858 0.5 13.55 0.835786 13.55 1.25V2H6.05V1.25C6.05 0.835786 5.71421 0.5 5.3 0.5C4.88578 0.5 4.55 0.835786 4.55 1.25V2H2.3C1.47157 2 0.799995 2.67157 0.799995 3.5V18.5C0.799995 19.3284 1.47157 20 2.3 20H17.3C18.1284 20 18.8 19.3284 18.8 18.5V3.5C18.8 2.67157 18.1284 2 17.3 2ZM4.55 3.5V4.25C4.55 4.66421 4.88578 5 5.3 5C5.71421 5 6.05 4.66421 6.05 4.25V3.5H13.55V4.25C13.55 4.66421 13.8858 5 14.3 5C14.7142 5 15.05 4.66421 15.05 4.25V3.5H17.3V6.5H2.3V3.5H4.55ZM17.3 18.5H2.3V8H17.3V18.5ZM8.3 10.25V16.25C8.3 16.6642 7.96421 17 7.55 17C7.13578 17 6.8 16.6642 6.8 16.25V11.4631L6.38562 11.6713C6.0149 11.8566 5.56411 11.7063 5.37875 11.3356C5.19339 10.9649 5.34365 10.5141 5.71437 10.3287L7.21437 9.57875C7.44695 9.46237 7.72322 9.47478 7.94442 9.61155C8.16562 9.74832 8.30018 9.98993 8.3 10.25ZM13.8462 13.1047L12.05 15.5H13.55C13.9642 15.5 14.3 15.8358 14.3 16.25C14.3 16.6642 13.9642 17 13.55 17H10.55C10.2659 17 10.0062 16.8395 9.87918 16.5854C9.75213 16.3313 9.77955 16.0273 9.95 15.8L12.6481 12.2028C12.8153 11.9802 12.8455 11.6833 12.7264 11.4316C12.6073 11.1799 12.3586 11.0149 12.0804 11.003C11.8023 10.9912 11.5404 11.1344 11.4003 11.375C11.2702 11.6146 11.0203 11.7647 10.7476 11.7671C10.475 11.7694 10.2226 11.6236 10.0884 11.3863C9.95415 11.1489 9.95932 10.8574 10.1019 10.625C10.6112 9.74353 11.649 9.31391 12.6324 9.57743C13.6158 9.84095 14.2997 10.7319 14.3 11.75C14.3016 12.2391 14.1421 12.7152 13.8462 13.1047Z" fill="#706685"/>
</svg>
