<svg width="19" height="19" viewBox="0 0 19 19" fill="none" xmlns="http://www.w3.org/2000/svg">
<path fill-rule="evenodd" clip-rule="evenodd" d="M17.8472 12.8556L13.4306 10.8766L13.4184 10.8709C12.9526 10.6717 12.4177 10.7211 11.9963 11.0022C11.9718 11.0183 11.9483 11.0359 11.9259 11.0547L9.64406 13C8.19844 12.2978 6.70594 10.8166 6.00375 9.38969L7.95187 7.07312C7.97062 7.04969 7.98844 7.02625 8.00531 7.00094C8.28032 6.5807 8.32677 6.05073 8.12906 5.58906V5.57781L6.14437 1.15375C5.88009 0.543904 5.246 0.180692 4.58625 0.26125C1.95833 0.607054 -0.00475144 2.84943 0 5.5C0 12.9438 6.05625 19 13.5 19C16.1506 19.0048 18.3929 17.0417 18.7388 14.4137C18.8195 13.7542 18.4567 13.1202 17.8472 12.8556ZM13.5 17.5C6.87558 17.4928 1.50723 12.1244 1.5 5.5C1.4927 3.60618 2.89195 2.00108 4.76906 1.75C4.76869 1.75374 4.76869 1.75751 4.76906 1.76125L6.73781 6.1675L4.8 8.48687C4.78033 8.50951 4.76246 8.53364 4.74656 8.55906C4.45961 8.99938 4.42405 9.55777 4.65281 10.0309C5.50219 11.7681 7.2525 13.5053 9.00844 14.3538C9.48515 14.5804 10.0459 14.5398 10.485 14.2469C10.5091 14.2307 10.5322 14.2131 10.5544 14.1944L12.8334 12.25L17.2397 14.2234C17.2397 14.2234 17.2472 14.2234 17.25 14.2234C17.002 16.1033 15.3962 17.5064 13.5 17.5Z" fill="#0D0D1C"/>
</svg>
