<svg width="18" height="18" viewBox="0 0 18 18" fill="none" xmlns="http://www.w3.org/2000/svg">
<path fill-rule="evenodd" clip-rule="evenodd" d="M17.25 0H5.25C4.83579 0 4.5 0.335786 4.5 0.75V4.5H0.75C0.335786 4.5 0 4.83579 0 5.25V17.25C0 17.6642 0.335786 18 0.75 18H12.75C13.1642 18 13.5 17.6642 13.5 17.25V13.5H17.25C17.6642 13.5 18 13.1642 18 12.75V0.75C18 0.335786 17.6642 0 17.25 0ZM12 16.5H1.5V6H12V16.5ZM16.5 12H13.5V5.25C13.5 4.83579 13.1642 4.5 12.75 4.5H6V1.5H16.5V12Z" fill="#0D0D1C"/>
</svg>
