<svg width="24" height="16" viewBox="0 0 24 16" fill="none" xmlns="http://www.w3.org/2000/svg">
<path fill-rule="evenodd" clip-rule="evenodd" d="M23.25 7.25H22.5V4.25C22.5 3.42157 21.8284 2.75 21 2.75H19.5V2C19.5 1.17157 18.8284 0.5 18 0.5H15.75C14.9216 0.5 14.25 1.17157 14.25 2V7.25H9.74999V2C9.74999 1.17157 9.07842 0.5 8.24999 0.5H5.99999C5.17157 0.5 4.49999 1.17157 4.49999 2V2.75H2.99999C2.17157 2.75 1.49999 3.42157 1.49999 4.25V7.25H0.749992C0.335779 7.25 -7.62939e-06 7.58579 -7.62939e-06 8C-7.62939e-06 8.41421 0.335779 8.75 0.749992 8.75H1.49999V11.75C1.49999 12.5784 2.17157 13.25 2.99999 13.25H4.49999V14C4.49999 14.8284 5.17157 15.5 5.99999 15.5H8.24999C9.07842 15.5 9.74999 14.8284 9.74999 14V8.75H14.25V14C14.25 14.8284 14.9216 15.5 15.75 15.5H18C18.8284 15.5 19.5 14.8284 19.5 14V13.25H21C21.8284 13.25 22.5 12.5784 22.5 11.75V8.75H23.25C23.6642 8.75 24 8.41421 24 8C24 7.58579 23.6642 7.25 23.25 7.25ZM2.99999 11.75V4.25H4.49999V11.75H2.99999ZM8.24999 14H5.99999V2H8.24999V14ZM18 14H15.75V2H18V12.4831C18 12.4888 18 12.4944 18 12.5C18 12.5056 18 12.5112 18 12.5169V14ZM21 11.75H19.5V4.25H21V11.75Z" fill="#706685"/>
</svg>
