<svg width="24" height="16" viewBox="0 0 24 16" fill="none" xmlns="http://www.w3.org/2000/svg">
<path fill-rule="evenodd" clip-rule="evenodd" d="M18.75 2V14C18.75 14.8284 18.0784 15.5 17.25 15.5H15.75C14.9216 15.5 14.25 14.8284 14.25 14V8.75H9.75V14C9.75 14.8284 9.07843 15.5 8.25 15.5H6.75C5.92157 15.5 5.25 14.8284 5.25 14V2C5.25 1.17157 5.92157 0.5 6.75 0.5H8.25C9.07843 0.5 9.75 1.17157 9.75 2V7.25H14.25V2C14.25 1.17157 14.9216 0.5 15.75 0.5H17.25C18.0784 0.5 18.75 1.17157 18.75 2ZM3.375 2.75H3C2.17157 2.75 1.5 3.42157 1.5 4.25V7.25H0.775312C0.373237 7.24406 0.0348589 7.54971 0 7.95031C-0.0137692 8.15768 0.0591271 8.36147 0.201299 8.51306C0.343471 8.66466 0.542172 8.75046 0.75 8.75H1.5V11.75C1.5 12.5784 2.17157 13.25 3 13.25H3.375C3.58211 13.25 3.75 13.0821 3.75 12.875V3.125C3.75 2.91789 3.58211 2.75 3.375 2.75ZM24 7.95031C23.9652 7.55044 23.6279 7.24505 23.2266 7.25H22.5V4.25C22.5 3.42157 21.8284 2.75 21 2.75H20.625C20.4179 2.75 20.25 2.91789 20.25 3.125V12.875C20.25 13.0821 20.4179 13.25 20.625 13.25H21C21.8284 13.25 22.5 12.5784 22.5 11.75V8.75H23.25C23.4578 8.75046 23.6565 8.66466 23.7987 8.51306C23.9409 8.36147 24.0138 8.15768 24 7.95031Z" fill="#120F1A"/>
</svg>
