<svg width="20" height="16" viewBox="0 0 20 16" fill="none" xmlns="http://www.w3.org/2000/svg">
<path fill-rule="evenodd" clip-rule="evenodd" d="M19.375 6.125C19.0298 6.125 18.75 6.40482 18.75 6.75V8.625H17.5V7.375C17.5 6.68464 16.9404 6.125 16.25 6.125H15.2586L12.5 3.36641C12.2664 3.13092 11.9481 2.99894 11.6164 3H10V1.75H11.875C12.2202 1.75 12.5 1.47018 12.5 1.125C12.5 0.779822 12.2202 0.5 11.875 0.5H6.875C6.52982 0.5 6.25 0.779822 6.25 1.125C6.25 1.47018 6.52982 1.75 6.875 1.75H8.75V3H3.75C3.05964 3 2.5 3.55964 2.5 4.25V8.625H1.25V6.75C1.25 6.40482 0.970178 6.125 0.625 6.125C0.279822 6.125 0 6.40482 0 6.75V11.75C0 12.0952 0.279822 12.375 0.625 12.375C0.970178 12.375 1.25 12.0952 1.25 11.75V9.875H2.5V11.4914C2.49894 11.8231 2.63092 12.1414 2.86641 12.375L5.625 15.1336C5.85861 15.3691 6.17689 15.5011 6.50859 15.5H11.6164C11.9481 15.5011 12.2664 15.3691 12.5 15.1336L15.2586 12.375H16.25C16.9404 12.375 17.5 11.8154 17.5 11.125V9.875H18.75V11.75C18.75 12.0952 19.0298 12.375 19.375 12.375C19.7202 12.375 20 12.0952 20 11.75V6.75C20 6.40482 19.7202 6.125 19.375 6.125ZM16.25 11.125H15.2586C14.9269 11.1239 14.6086 11.2559 14.375 11.4914L11.6164 14.25H6.50859L3.75 11.4914V4.25H11.6164L14.375 7.00859C14.6086 7.24408 14.9269 7.37606 15.2586 7.375H16.25V11.125Z" fill="#120F17"/>
</svg>
