<svg width="19" height="19" viewBox="0 0 19 19" fill="none" xmlns="http://www.w3.org/2000/svg">
<path fill-rule="evenodd" clip-rule="evenodd" d="M18.6 8.83281V17.5C18.6 18.3284 17.9284 19 17.1 19H13.35C12.5216 19 11.85 18.3284 11.85 17.5V13.75C11.85 13.3358 11.5142 13 11.1 13H8.1C7.68579 13 7.35 13.3358 7.35 13.75V17.5C7.35 18.3284 6.67843 19 5.85 19H2.1C1.27157 19 0.599998 18.3284 0.599998 17.5V8.83281C0.599935 8.41309 0.775728 8.01254 1.08469 7.72844L8.58469 0.652188L8.595 0.641875C9.16719 0.121501 10.0412 0.121501 10.6134 0.641875C10.6166 0.645543 10.6201 0.648989 10.6237 0.652188L18.1237 7.72844C18.4296 8.01402 18.6022 8.41437 18.6 8.83281Z" fill="#121217"/>
</svg>
