<svg width="18" height="18" viewBox="0 0 18 18" fill="none" xmlns="http://www.w3.org/2000/svg">
<path fill-rule="evenodd" clip-rule="evenodd" d="M17.0992 3.75703C16.6326 3.19511 15.9647 2.83791 15.2383 2.76172C15.112 1.61283 14.2958 0.658138 13.1804 0.354931C12.0651 0.0517236 10.8778 0.461735 10.1873 1.38858C9.49672 2.31542 9.44351 3.57037 10.0531 4.55234C10.0535 4.55441 10.0535 4.55652 10.0531 4.55859L4.56016 10.0555C4.56016 10.0555 4.56016 10.0555 4.55234 10.0555C3.57037 9.44585 2.31542 9.49906 1.38858 10.1896C0.461735 10.8802 0.0517236 12.0674 0.354931 13.1828C0.658138 14.2981 1.61283 15.1144 2.76172 15.2406C2.88797 16.3895 3.70425 17.3442 4.81958 17.6474C5.93491 17.9506 7.12219 17.5406 7.81273 16.6138C8.50328 15.6869 8.55649 14.432 7.94687 13.45C7.94672 13.4479 7.94672 13.4458 7.94687 13.4438L13.443 7.94687C13.443 7.94687 13.443 7.94687 13.4508 7.94687C14.6235 8.68549 16.1594 8.45975 17.07 7.41496C17.9805 6.37016 17.9943 4.81778 17.1023 3.75703H17.0992ZM16.1172 6.59062C15.6123 7.16869 14.7624 7.29451 14.1117 6.8875C13.6178 6.57407 12.9725 6.64515 12.5586 7.05859L7.05859 12.5586C6.64616 12.9733 6.57638 13.6185 6.89062 14.1117C7.25628 14.6999 7.19111 15.4586 6.73049 15.9758C6.26987 16.493 5.52375 16.6453 4.8973 16.35C4.27085 16.0546 3.91359 15.3821 4.01953 14.6977C4.04786 14.5171 3.99573 14.3332 3.87687 14.1943C3.75801 14.0555 3.58433 13.9756 3.40156 13.9758C3.36938 13.9761 3.33727 13.9787 3.30547 13.9836C2.62179 14.0887 1.95036 13.7318 1.65505 13.1063C1.35974 12.4808 1.51086 11.7356 2.02649 11.2745C2.54213 10.8134 3.29955 10.7462 3.88828 11.1094C4.38224 11.4228 5.02752 11.3517 5.44141 10.9383L10.9414 5.43828C11.3522 5.02411 11.4219 4.38085 11.1094 3.88828C10.7437 3.30009 10.8089 2.54138 11.2695 2.02417C11.7301 1.50696 12.4763 1.35469 13.1027 1.65005C13.7291 1.94541 14.0864 2.61791 13.9805 3.30234C13.9496 3.49958 14.0149 3.69969 14.156 3.84085C14.2972 3.98202 14.4973 4.04725 14.6945 4.01641C15.3465 3.91091 15.9943 4.22669 16.3129 4.80521C16.6314 5.38373 16.5518 6.10004 16.1141 6.59453L16.1172 6.59062Z" fill="#120F1A"/>
</svg>
