<svg width="18" height="18" viewBox="0 0 18 18" fill="none" xmlns="http://www.w3.org/2000/svg">
<path fill-rule="evenodd" clip-rule="evenodd" d="M7.5 17.25C7.5 17.6642 7.16421 18 6.75 18H1.5C0.671573 18 0 17.3284 0 16.5V1.5C0 0.671573 0.671573 0 1.5 0H6.75C7.16421 0 7.5 0.335786 7.5 0.75C7.5 1.16421 7.16421 1.5 6.75 1.5H1.5V16.5H6.75C7.16421 16.5 7.5 16.8358 7.5 17.25ZM17.7806 8.46937L14.0306 4.71938C13.7376 4.42632 13.2624 4.42632 12.9694 4.71938C12.6763 5.01243 12.6763 5.48757 12.9694 5.78063L15.4397 8.25H6.75C6.33579 8.25 6 8.58579 6 9C6 9.41421 6.33579 9.75 6.75 9.75H15.4397L12.9694 12.2194C12.6763 12.5124 12.6763 12.9876 12.9694 13.2806C13.2624 13.5737 13.7376 13.5737 14.0306 13.2806L17.7806 9.53063C17.9215 9.38995 18.0006 9.19906 18.0006 9C18.0006 8.80094 17.9215 8.61005 17.7806 8.46937Z" fill="#0D0D1C"/>
</svg>
