<svg width="21" height="19" viewBox="0 0 21 19" fill="none" xmlns="http://www.w3.org/2000/svg">
<path fill-rule="evenodd" clip-rule="evenodd" d="M20.0497 18.625C19.9157 18.8571 19.668 19.0001 19.4 19H1.39999C1.13218 18.9997 0.884838 18.8567 0.751051 18.6247C0.617265 18.3927 0.617338 18.1069 0.751244 17.875C2.17906 15.4066 4.37937 13.6366 6.94718 12.7975C4.33644 11.2433 3.08584 8.13638 3.89181 5.2069C4.69778 2.27741 7.36166 0.247449 10.4 0.247449C13.4383 0.247449 16.1022 2.27741 16.9082 5.2069C17.7141 8.13638 16.4635 11.2433 13.8528 12.7975C16.4206 13.6366 18.6209 15.4066 20.0487 17.875C20.183 18.1069 20.1834 18.3928 20.0497 18.625Z" fill="#120F1A"/>
</svg>
