<svg width="20" height="18" viewBox="0 0 20 18" fill="none" xmlns="http://www.w3.org/2000/svg">
<path fill-rule="evenodd" clip-rule="evenodd" d="M18.4502 0.75H1.9502C1.12177 0.75 0.450195 1.42157 0.450195 2.25V15.75C0.450195 16.5784 1.12177 17.25 1.9502 17.25H18.4502C19.2786 17.25 19.9502 16.5784 19.9502 15.75V2.25C19.9502 1.42157 19.2786 0.75 18.4502 0.75ZM16.9502 13.5C17.3644 13.5 17.7002 13.8358 17.7002 14.25C17.7002 14.6642 17.3644 15 16.9502 15H3.4502C3.03598 15 2.7002 14.6642 2.7002 14.25V3.75C2.7002 3.33579 3.03598 3 3.4502 3C3.86441 3 4.2002 3.33579 4.2002 3.75V9.64875L7.4702 6.92344C7.72539 6.71078 8.09007 6.69132 8.36645 6.87562L12.3977 9.56531L16.4674 6.17344C16.7858 5.90834 17.2588 5.95157 17.5239 6.27C17.789 6.58843 17.7458 7.06147 17.4274 7.32656L12.9274 11.0766C12.6722 11.2892 12.3075 11.3087 12.0311 11.1244L7.99988 8.43469L4.2002 11.6016V13.5H16.9502Z" fill="#120F1A"/>
</svg>
