<svg width="20" height="18" viewBox="0 0 20 18" fill="none" xmlns="http://www.w3.org/2000/svg">
<path fill-rule="evenodd" clip-rule="evenodd" d="M19.95 16.5C19.95 16.9142 19.6142 17.25 19.2 17.25H1.19999C0.785776 17.25 0.449989 16.9142 0.449989 16.5V1.5C0.449989 1.08579 0.785776 0.75 1.19999 0.75C1.6142 0.75 1.94999 1.08579 1.94999 1.5V10.3472L6.70593 6.1875C6.97265 5.95401 7.36643 5.93915 7.64999 6.15187L13.1634 10.2872L18.7059 5.4375C18.9039 5.24149 19.1943 5.1714 19.4599 5.2555C19.7256 5.33959 19.9227 5.56402 19.9718 5.83828C20.0209 6.11254 19.914 6.39143 19.6941 6.5625L13.6941 11.8125C13.4273 12.046 13.0336 12.0608 12.75 11.8481L7.23655 7.71469L1.94999 12.3403V15.75H19.2C19.6142 15.75 19.95 16.0858 19.95 16.5Z" fill="#706685"/>
</svg>
