<svg width="20" height="18" viewBox="0 0 20 18" fill="none" xmlns="http://www.w3.org/2000/svg">
<path fill-rule="evenodd" clip-rule="evenodd" d="M20 9C20.0004 13.9237 16.0442 17.9338 11.1209 18H11C8.70148 18.0057 6.48902 17.1261 4.82188 15.5438C4.52079 15.259 4.50757 14.784 4.79234 14.483C5.07712 14.1819 5.55204 14.1687 5.85313 14.4534C8.84565 17.2756 13.5529 17.1609 16.4044 14.1962C19.2558 11.2316 19.1873 6.5234 16.2508 3.64296C13.3143 0.76252 8.60572 0.78476 5.69656 3.69281C5.6889 3.7011 5.68076 3.70892 5.67219 3.71625L3.18031 6H5.75C6.16421 6 6.5 6.33579 6.5 6.75C6.5 7.16421 6.16421 7.5 5.75 7.5H1.25C0.835786 7.5 0.5 7.16421 0.5 6.75V2.25C0.5 1.83579 0.835786 1.5 1.25 1.5C1.66421 1.5 2 1.83579 2 2.25V5.04375L4.64844 2.625C7.22499 0.058454 11.093 -0.705217 14.4516 0.689519C17.8103 2.08426 19.9995 5.36327 20 9Z" fill="#120D1C"/>
</svg>
