<svg width="20" height="14" viewBox="0 0 20 14" fill="none" xmlns="http://www.w3.org/2000/svg">
<path fill-rule="evenodd" clip-rule="evenodd" d="M19.375 6.375H18.75V3.875C18.75 3.18464 18.1904 2.625 17.5 2.625H16.25V2C16.25 1.30964 15.6904 0.75 15 0.75H13.125C12.4346 0.75 11.875 1.30964 11.875 2V6.375H8.125V2C8.125 1.30964 7.56536 0.75 6.875 0.75H5C4.30964 0.75 3.75 1.30964 3.75 2V2.625H2.5C1.80964 2.625 1.25 3.18464 1.25 3.875V6.375H0.625C0.279822 6.375 0 6.65482 0 7C0 7.34518 0.279822 7.625 0.625 7.625H1.25V10.125C1.25 10.8154 1.80964 11.375 2.5 11.375H3.75V12C3.75 12.6904 4.30964 13.25 5 13.25H6.875C7.56536 13.25 8.125 12.6904 8.125 12V7.625H11.875V12C11.875 12.6904 12.4346 13.25 13.125 13.25H15C15.6904 13.25 16.25 12.6904 16.25 12V11.375H17.5C18.1904 11.375 18.75 10.8154 18.75 10.125V7.625H19.375C19.7202 7.625 20 7.34518 20 7C20 6.65482 19.7202 6.375 19.375 6.375ZM2.5 10.125V3.875H3.75V10.125H2.5ZM6.875 12H5V2H6.875V12ZM15 12H13.125V2H15V10.7359C15 10.7406 15 10.7453 15 10.75C15 10.7547 15 10.7594 15 10.7641V12ZM17.5 10.125H16.25V3.875H17.5V10.125Z" fill="#120F17"/>
</svg>
