<svg width="20" height="20" viewBox="0 0 20 20" fill="none" xmlns="http://www.w3.org/2000/svg">
<path fill-rule="evenodd" clip-rule="evenodd" d="M6.25 12.0053C6.66421 12.0053 7 11.6695 7 11.2553V10H13V11.4334C13 11.8477 13.3358 12.1834 13.75 12.1834C14.1642 12.1834 14.5 11.8477 14.5 11.4334V1C14.5 0.585786 14.1642 0.25 13.75 0.25C13.3358 0.25 13 0.585786 13 1V2.5H7V1C7 0.585786 6.66421 0.25 6.25 0.25C5.83579 0.25 5.5 0.585786 5.5 1V11.2553C5.5 11.6695 5.83579 12.0053 6.25 12.0053ZM7 8.5V7H13V8.5H7ZM13 4V5.5H7V4H13ZM0.25 13.75C0.25 13.3358 0.585786 13 1 13C2.35187 13 3.08031 13.4856 3.66625 13.8756C4.1875 14.2244 4.60187 14.5 5.5 14.5C6.39812 14.5 6.8125 14.2244 7.33375 13.8756C7.91875 13.4856 8.64625 13 9.99906 13C11.3519 13 12.0803 13.4856 12.6653 13.8756C13.1884 14.2244 13.6028 14.5 14.5 14.5C15.3972 14.5 15.8125 14.2244 16.3337 13.8756C16.9197 13.4856 17.6462 13 19 13C19.4142 13 19.75 13.3358 19.75 13.75C19.75 14.1642 19.4142 14.5 19 14.5C18.1019 14.5 17.6875 14.7756 17.1663 15.1244C16.5803 15.5144 15.8538 16 14.5 16C13.1462 16 12.4187 15.5144 11.8337 15.1244C11.3125 14.7756 10.8972 14.5 10 14.5C9.10281 14.5 8.6875 14.7756 8.16625 15.1244C7.58125 15.5144 6.85375 16 5.50094 16C4.14812 16 3.42063 15.5144 2.83469 15.1244C2.3125 14.7756 1.89812 14.5 1 14.5C0.585786 14.5 0.25 14.1642 0.25 13.75ZM19.75 17.5C19.75 17.9142 19.4142 18.25 19 18.25C18.1019 18.25 17.6875 18.5256 17.1663 18.8744C16.5803 19.2644 15.8538 19.75 14.5 19.75C13.1462 19.75 12.4187 19.2644 11.8337 18.8744C11.3125 18.5256 10.8972 18.25 10 18.25C9.10281 18.25 8.6875 18.5256 8.16625 18.8744C7.58125 19.2644 6.85375 19.75 5.50094 19.75C4.14812 19.75 3.42063 19.2644 2.83469 18.8744C2.3125 18.5256 1.89812 18.25 1 18.25C0.585786 18.25 0.25 17.9142 0.25 17.5C0.25 17.0858 0.585786 16.75 1 16.75C2.35187 16.75 3.08031 17.2356 3.66625 17.6256C4.1875 17.9744 4.60187 18.25 5.5 18.25C6.39812 18.25 6.8125 17.9744 7.33375 17.6256C7.91875 17.2356 8.64625 16.75 9.99906 16.75C11.3519 16.75 12.0803 17.2356 12.6653 17.6256C13.1884 17.9744 13.6028 18.25 14.5 18.25C15.3972 18.25 15.8125 17.9744 16.3337 17.6256C16.9197 17.2356 17.6462 16.75 19 16.75C19.4142 16.75 19.75 17.0858 19.75 17.5Z" fill="#121217"/>
</svg>
