<svg width="24" height="17" viewBox="0 0 24 17" fill="none" xmlns="http://www.w3.org/2000/svg">
<path fill-rule="evenodd" clip-rule="evenodd" d="M23.0466 8.40281C22.8533 8.06328 22.5317 7.81567 22.1541 7.71562C21.4758 7.54105 20.775 7.47087 20.0756 7.5075C20.4506 5.64656 20.1694 4.17469 19.8825 3.30188C19.6456 2.55899 18.8832 2.11754 18.1209 2.28188C17.167 2.49434 16.2599 2.87942 15.4444 3.41813C14.8471 2.1981 13.9776 1.13161 12.9028 0.300937C12.3678 -0.100313 11.6322 -0.100313 11.0972 0.300937C10.0222 1.13136 9.15258 2.19792 8.55562 3.41813C7.74014 2.87942 6.83304 2.49434 5.87906 2.28188C5.11683 2.11754 4.35443 2.55899 4.1175 3.30188C3.83625 4.17469 3.555 5.64562 3.92438 7.5075C3.22501 7.47087 2.52415 7.54105 1.84594 7.71562C1.46829 7.81567 1.14669 8.06328 0.953438 8.40281C0.751192 8.75062 0.697145 9.16509 0.803437 9.55313C1.12125 10.7316 2.09719 12.9731 5.05312 14.7394C8.00906 16.5056 10.6059 16.5 12.0047 16.5C13.4034 16.5 16.005 16.5 18.9422 14.7394C21.8981 12.9731 22.8741 10.7316 23.1919 9.55313C23.2996 9.16571 23.2472 8.75127 23.0466 8.40281ZM5.54437 3.76312C5.5467 3.75346 5.55616 3.7473 5.56594 3.74906C6.43827 3.94612 7.26148 4.31833 7.98562 4.84312C7.6559 5.92177 7.49216 7.0443 7.5 8.17219C7.5 9.92906 7.85344 11.3597 8.35406 12.5109C7.64235 11.7986 7.02654 10.9965 6.52219 10.125C4.83281 7.18312 5.18437 4.875 5.54437 3.76312ZM5.82562 13.4522C3.32531 11.9597 2.51437 10.1297 2.25 9.15938C2.93983 8.98954 3.65565 8.95231 4.35938 9.04969C4.59431 9.67901 4.88124 10.2877 5.21719 10.8694C6.04205 12.2915 7.12271 13.5489 8.40469 14.5781C7.49817 14.3175 6.62981 13.9389 5.82188 13.4522H5.82562ZM12 14.85C11.1253 14.1994 9 12.2034 9 8.17219C9 4.19063 11.0981 2.17875 12 1.5C12.9019 2.18062 15 4.1925 15 8.17406C15 12.2034 12.8747 14.1994 12 14.85ZM16.0144 4.84312C16.7386 4.31867 17.5618 3.94677 18.4341 3.75C18.4438 3.74823 18.4533 3.7544 18.4556 3.76406C18.8156 4.875 19.1672 7.18312 17.4778 10.125C16.9739 10.9977 16.3581 11.8007 15.6459 12.5138C16.1466 11.3644 16.5 9.93188 16.5 8.175C16.5081 7.04617 16.3444 5.92267 16.0144 4.84312ZM21.75 9.16125C21.4903 10.1222 20.6812 11.9559 18.1791 13.4522C17.3711 13.9386 16.5027 14.3169 15.5962 14.5772C16.8782 13.5479 17.9589 12.2906 18.7838 10.8684C19.1197 10.2867 19.4066 9.67807 19.6416 9.04875C20.3451 8.95181 21.0606 8.98967 21.75 9.16031V9.16125Z" fill="#121217"/>
</svg>
